<svg width="1250" height="571" viewBox="0 0 1250 571" fill="none" xmlns="http://www.w3.org/2000/svg">
<path d="M36.4212 83.4681C36.4212 83.4681 210.965 20.6941 291.893 79.0654C370.773 135.959 282.839 273.884 370.857 315.257C442.634 348.996 494.017 254.64 570.231 276.588C615.098 289.508 628.546 322.325 672.074 339.215C780.98 381.473 873.768 243.529 969.78 310.072C1017.79 343.349 1008.74 399.944 1058.54 430.48C1105.69 459.388 1197.71 456.676 1197.71 456.676" stroke="black" stroke-opacity="0.25" stroke-width="4" stroke-dasharray="20 20"/>
<g filter="url(#filter0_d_144_20)">
<circle cx="1202.5" cy="454.5" r="22.5" fill="white"/>
</g>
<path d="M577 208C592.448 208 599 221.659 599 238.5C599 255.341 574 273 574 273C574 273 552.5 255.341 552.5 238.5C552.5 221.659 561.552 208 577 208Z" fill="#FFB201"/>
<circle cx="576.5" cy="234.5" r="12.5" fill="#F0EEF7"/>
<path d="M577 208C592.448 208 599 221.659 599 238.5C599 255.341 574 273 574 273C574 273 552.5 255.341 552.5 238.5C552.5 221.659 561.552 208 577 208Z" fill="#FFB201"/>
<circle cx="576.5" cy="234.5" r="12.5" fill="#F0EEF7"/>
<defs>
<filter id="filter0_d_144_20" x="1155" y="415" width="95" height="95" filterUnits="userSpaceOnUse" color-interpolation-filters="sRGB">
<feFlood flood-opacity="0" result="BackgroundImageFix"/>
<feColorMatrix in="SourceAlpha" type="matrix" values="0 0 0 0 0 0 0 0 0 0 0 0 0 0 0 0 0 0 127 0" result="hardAlpha"/>
<feOffset dy="8"/>
<feGaussianBlur stdDeviation="12.5"/>
<feComposite in2="hardAlpha" operator="out"/>
<feColorMatrix type="matrix" values="0 0 0 0 0 0 0 0 0 0 0 0 0 0 0 0 0 0 0.05 0"/>
<feBlend mode="normal" in2="BackgroundImageFix" result="effect1_dropShadow_144_20"/>
<feBlend mode="normal" in="SourceGraphic" in2="effect1_dropShadow_144_20" result="shape"/>
</filter>
</defs>
</svg>
